<svg width="32" height="32" viewBox="0 0 32 32" fill="none" xmlns="http://www.w3.org/2000/svg">
<rect opacity="0.25" width="32" height="32" rx="16" fill="#47C3CF"/>
<g clip-path="url(#clip0_45_12872)">
<path d="M13.6794 8C15.2261 8 16.7732 8 18.32 8C18.3411 8.00926 18.3619 8.02244 18.3841 8.02707C19.0946 8.18168 19.5641 8.66048 19.668 9.37617C19.7029 9.61771 19.6737 9.86886 19.6737 10.1325C19.7709 10.1325 19.8336 10.1325 19.8966 10.1325C21.0626 10.1325 22.2285 10.1264 23.3941 10.135C24.0884 10.14 24.584 10.4773 24.8732 11.115C24.931 11.2425 24.9585 11.384 24.9997 11.5186C24.9997 11.8029 24.9997 12.0872 24.9997 12.3718C24.9891 12.4352 24.9729 12.4983 24.969 12.5624C24.9292 13.1908 24.8303 13.8089 24.6446 14.4106C24.317 15.4708 23.7552 16.3628 22.8105 16.9717C22.0841 17.4398 21.2739 17.5887 20.4299 17.5958C19.7096 17.6019 18.9889 17.5972 18.2685 17.5965C18.2182 17.5965 18.1678 17.5901 18.1083 17.5858C18.1083 17.2111 18.1146 16.8502 18.1069 16.4897C18.0906 15.7316 17.5471 15.0704 16.8078 14.9685C16.3988 14.9119 15.9786 14.9336 15.5633 14.9325C14.5611 14.9297 13.8918 15.6108 13.8908 16.6268C13.8904 16.9449 13.8908 17.2631 13.8908 17.5862C13.8513 17.5912 13.8291 17.5965 13.8069 17.5965C12.9925 17.5958 12.1774 17.6229 11.3644 17.588C9.54435 17.5096 8.2611 16.6143 7.54497 14.9154C7.13143 13.935 7.01202 12.8969 7.0011 11.8421C6.99053 10.8207 7.66544 10.1332 8.67605 10.1328C9.8184 10.1321 10.9607 10.1328 12.1031 10.1328C12.1658 10.1328 12.2288 10.1328 12.3095 10.1328C12.3095 9.92799 12.3007 9.73954 12.3113 9.55216C12.3458 8.92802 12.635 8.46098 13.1863 8.17492C13.3398 8.09512 13.5146 8.057 13.6794 8ZM18.6363 10.1268C18.6363 9.94438 18.6391 9.77944 18.6356 9.6145C18.6285 9.29245 18.4098 9.07194 18.0899 9.06695C17.8441 9.06339 17.5982 9.06624 17.3523 9.06624C16.2167 9.06624 15.081 9.06588 13.9454 9.0666C13.6396 9.06695 13.4082 9.23296 13.3747 9.50763C13.3501 9.70926 13.3698 9.91624 13.3698 10.1268C15.1279 10.1268 16.8705 10.1268 18.6363 10.1268Z" fill="#47C3CF"/>
<path d="M25 16.211C25 18.6755 25 21.14 25 23.6045C24.8602 23.913 24.6182 24.0006 24.2916 24.0003C18.7373 23.9935 13.1827 23.9953 7.62771 23.9953C7.20254 23.9953 7.00035 23.7933 7 23.3687C7 21.0463 7 18.7239 7 16.4019C7 16.346 7 16.2901 7 16.1868C7.05636 16.2651 7.08384 16.3008 7.10849 16.3378C8.03667 17.7307 9.34 18.4977 10.9854 18.6213C11.8773 18.6883 12.7769 18.653 13.6727 18.6637C13.7417 18.6644 13.8104 18.6637 13.884 18.6637C13.8886 18.7222 13.8914 18.7628 13.8957 18.803C13.976 19.5796 14.5611 20.191 15.323 20.2519C15.7365 20.2846 16.1546 20.2686 16.5703 20.2604C17.2611 20.2469 17.8574 19.7749 18.0441 19.0998C18.0829 18.9601 18.1001 18.8148 18.129 18.6637C18.215 18.6637 18.2967 18.6655 18.378 18.6634C19.309 18.6402 20.2414 18.6424 21.1707 18.5861C22.288 18.5184 23.2838 18.1076 24.0898 17.3096C24.4258 16.9769 24.6985 16.579 25 16.211Z" fill="#1688A8"/>
<path d="M17.0548 17.602C17.0548 17.939 17.0563 18.2763 17.0545 18.6133C17.0524 18.9792 16.8375 19.1947 16.4736 19.1965C16.152 19.1983 15.8301 19.199 15.5085 19.1961C15.1675 19.1933 14.9477 18.9739 14.9463 18.6304C14.9438 17.9386 14.9435 17.2464 14.9466 16.5546C14.948 16.2222 15.17 16.0017 15.5004 15.9985C15.8336 15.9953 16.1672 15.9953 16.5008 15.9985C16.8305 16.0017 17.0506 16.2222 17.0541 16.555C17.0577 16.9041 17.0548 17.2532 17.0548 17.602Z" fill="#47C3CF"/>
</g>
<defs>
<clipPath id="clip0_45_12872">
<rect width="18" height="16" fill="white" transform="translate(7 8)"/>
</clipPath>
</defs>
</svg>
